<svg width="24" height="24" viewBox="0 0 24 24" fill="none" xmlns="http://www.w3.org/2000/svg">
<g clip-path="url(#clip0_85_19)">
<path d="M12 1.3335C9.89032 1.3335 7.82803 1.95909 6.0739 3.13115C4.31978 4.30322 2.9526 5.96913 2.14527 7.91821C1.33793 9.86728 1.1267 12.012 1.53827 14.0811C1.94985 16.1503 2.96575 18.0509 4.45751 19.5426C5.94927 21.0344 7.84989 22.0503 9.91902 22.4619C11.9882 22.8734 14.1329 22.6622 16.0819 21.8549C18.031 21.0475 19.6969 19.6804 20.869 17.9262C22.0411 16.1721 22.6667 14.1098 22.6667 12.0002C22.6667 9.17119 21.5428 6.45808 19.5425 4.45769C17.5421 2.4573 14.829 1.3335 12 1.3335ZM12 21.3335C10.154 21.3335 8.34952 20.7861 6.81466 19.7605C5.2798 18.735 4.08353 17.2773 3.37711 15.5719C2.67069 13.8664 2.48586 11.9898 2.84599 10.1793C3.20612 8.36883 4.09503 6.70579 5.40032 5.4005C6.70561 4.09521 8.36865 3.2063 10.1791 2.84617C11.9896 2.48604 13.8663 2.67087 15.5717 3.37729C17.2771 4.08371 18.7348 5.27998 19.7604 6.81484C20.7859 8.3497 21.3333 10.1542 21.3333 12.0002C21.3333 14.4755 20.35 16.8495 18.5996 18.5998C16.8493 20.3502 14.4753 21.3335 12 21.3335Z" fill="white"/>
<path d="M12.6134 12.2667V7.16667C12.6134 6.98986 12.5431 6.82029 12.4181 6.69526C12.2931 6.57024 12.1235 6.5 11.9467 6.5C11.7699 6.5 11.6003 6.57024 11.4753 6.69526C11.3503 6.82029 11.28 6.98986 11.28 7.16667V12.98L15.2134 15.6467C15.2858 15.7012 15.3686 15.7403 15.4567 15.7617C15.5448 15.7831 15.6364 15.7863 15.7257 15.7711C15.8151 15.756 15.9005 15.7227 15.9766 15.6734C16.0526 15.6241 16.1179 15.5598 16.1683 15.4845C16.2187 15.4091 16.2532 15.3242 16.2696 15.2351C16.2861 15.1459 16.2843 15.0544 16.2641 14.966C16.244 14.8776 16.2061 14.7942 16.1527 14.7209C16.0992 14.6477 16.0314 14.5861 15.9534 14.54L12.6134 12.2667Z" fill="white"/>
<path d="M5.33333 11.9602C5.32723 10.7609 5.64673 9.58245 6.25775 8.55045C6.86877 7.51845 7.74841 6.67162 8.80289 6.10024C9.85736 5.52887 11.0471 5.25438 12.2453 5.30604C13.4435 5.3577 14.6053 5.73357 15.6067 6.39357L16.1733 5.48691C15.2221 4.86384 14.1448 4.45917 13.0186 4.30197C11.8925 4.14477 10.7455 4.23893 9.66002 4.57771C8.57458 4.91648 7.57764 5.49144 6.74082 6.2613C5.904 7.03116 5.24807 7.9768 4.82015 9.03029C4.39223 10.0838 4.20295 11.219 4.2659 12.3543C4.32885 13.4896 4.64246 14.5969 5.18422 15.5967C5.72598 16.5964 6.48243 17.4637 7.39923 18.1363C8.31603 18.809 9.37042 19.2702 10.4867 19.4869L10.6667 18.4669C9.16532 18.1605 7.81537 17.3462 6.844 16.1611C5.87263 14.976 5.33915 13.4925 5.33333 11.9602Z" fill="white"/>
</g>
<defs>
<clipPath id="clip0_85_19">
<rect width="24" height="24" fill="white"/>
</clipPath>
</defs>
</svg>
